<svg width="41" height="40" viewBox="0 0 41 40" fill="none" xmlns="http://www.w3.org/2000/svg">
<path fill-rule="evenodd" clip-rule="evenodd" d="M17.1216 0.85942C19.2283 -0.286473 21.7721 -0.286474 23.8787 0.85942L36.0915 7.50256C38.3671 8.74033 39.7836 11.1233 39.7836 13.7137V26.2863C39.7836 28.8767 38.3671 31.2597 36.0915 32.4974L23.8787 39.1406C21.7721 40.2865 19.2283 40.2865 17.1216 39.1406L4.90883 32.4974C2.6333 31.2597 1.2168 28.8767 1.2168 26.2863L1.2168 13.7137C1.2168 11.1233 2.6333 8.74033 4.90882 7.50256L17.1216 0.85942Z" fill="#F7931A"/>
<g clip-path="url(#clip0_4057_52855)">
<path d="M20.5 36C29.3366 36 36.5 28.8366 36.5 20C36.5 11.1634 29.3366 4 20.5 4C11.6634 4 4.5 11.1634 4.5 20C4.5 28.8366 11.6634 36 20.5 36Z" fill="#F7931A"/>
<path d="M27.532 18.02C27.846 15.924 26.249 14.797 24.067 14.045L24.775 11.205L23.047 10.775L22.357 13.54C21.903 13.426 21.437 13.32 20.972 13.214L21.667 10.431L19.939 10L19.231 12.839C18.855 12.753 18.485 12.669 18.127 12.579L18.129 12.57L15.745 11.975L15.285 13.821C15.285 13.821 16.568 14.115 16.541 14.133C17.241 14.308 17.367 14.771 17.346 15.139L16.54 18.374C16.588 18.386 16.65 18.404 16.72 18.431L16.537 18.386L15.407 22.918C15.321 23.13 15.104 23.449 14.614 23.328C14.632 23.353 13.358 23.015 13.358 23.015L12.5 24.993L14.75 25.554C15.168 25.659 15.578 25.769 15.981 25.872L15.266 28.744L16.993 29.174L17.701 26.334C18.173 26.461 18.631 26.579 19.079 26.691L18.373 29.519L20.101 29.949L20.816 27.083C23.764 27.641 25.98 27.416 26.913 24.75C27.665 22.604 26.876 21.365 25.325 20.558C26.455 20.298 27.305 19.555 27.532 18.02ZM23.582 23.558C23.049 25.705 19.434 24.544 18.262 24.253L19.212 20.448C20.384 20.741 24.141 21.32 23.582 23.558ZM24.117 17.989C23.63 19.942 20.622 18.949 19.647 18.706L20.507 15.256C21.482 15.499 24.625 15.952 24.117 17.989Z" fill="#FCFCFD"/>
</g>
<defs>
<clipPath id="clip0_4057_52855">
<rect width="32" height="32" fill="white" transform="translate(4.5 4)"/>
</clipPath>
</defs>
</svg>
