<svg width="41" height="40" viewBox="0 0 41 40" fill="none" xmlns="http://www.w3.org/2000/svg">
<path fill-rule="evenodd" clip-rule="evenodd" d="M17.1216 0.85942C19.2283 -0.286473 21.7721 -0.286474 23.8787 0.85942L36.0915 7.50256C38.3671 8.74033 39.7836 11.1233 39.7836 13.7137V26.2863C39.7836 28.8767 38.3671 31.2597 36.0915 32.4974L23.8787 39.1406C21.7721 40.2865 19.2283 40.2865 17.1216 39.1406L4.90883 32.4974C2.6333 31.2597 1.2168 28.8767 1.2168 26.2863L1.2168 13.7137C1.2168 11.1233 2.6333 8.74033 4.90882 7.50256L17.1216 0.85942Z" fill="#23292F"/>
<g clip-path="url(#clip0_4057_52933)">
<path d="M20.5 36C29.3366 36 36.5 28.8366 36.5 20C36.5 11.1634 29.3366 4 20.5 4C11.6634 4 4.5 11.1634 4.5 20C4.5 28.8366 11.6634 36 20.5 36Z" fill="#23292F"/>
<path d="M27.57 12H30.46L24.445 17.957C23.3934 18.9931 21.9763 19.5739 20.5 19.5739C19.0237 19.5739 17.6066 18.9931 16.555 17.957L10.535 12H13.43L18 16.523C18.6655 17.1799 19.5629 17.5482 20.498 17.5482C21.4331 17.5482 22.3305 17.1799 22.996 16.523L27.57 12ZM13.395 28.563H10.5L16.555 22.57C17.6066 21.5339 19.0237 20.9531 20.5 20.9531C21.9763 20.9531 23.3934 21.5339 24.445 22.57L30.5 28.562H27.605L23 24C22.3345 23.3431 21.4371 22.9748 20.502 22.9748C19.5669 22.9748 18.6695 23.3431 18.004 24L13.394 28.563H13.395Z" fill="#FCFCFD"/>
</g>
<defs>
<clipPath id="clip0_4057_52933">
<rect width="32" height="32" fill="white" transform="translate(4.5 4)"/>
</clipPath>
</defs>
</svg>
