<svg width="137" height="32" viewBox="0 0 137 32" fill="none" xmlns="http://www.w3.org/2000/svg">
<path fill-rule="evenodd" clip-rule="evenodd" d="M13.2971 0.687536C14.9824 -0.229179 17.0175 -0.229179 18.7028 0.687536L28.473 6.00205C30.2935 6.99226 31.4267 8.89867 31.4267 10.971V21.029C31.4267 23.1013 30.2935 25.0077 28.473 25.998L18.7028 31.3125C17.0175 32.2292 14.9824 32.2292 13.2971 31.3125L3.52687 25.998C1.70645 25.0077 0.573242 23.1013 0.573242 21.029L0.573242 10.971C0.573242 8.89867 1.70645 6.99226 3.52686 6.00205L13.2971 0.687536Z" fill="#3772FF"/>
<g filter="url(#filter0_d_4020_67293)">
<path fill-rule="evenodd" clip-rule="evenodd" d="M18.8612 21.6673C22.5431 21.6673 25.5278 18.6825 25.5278 15.0007C25.5278 11.3188 22.5431 8.33398 18.8612 8.33398C16.0446 8.33398 13.636 10.0806 12.6594 12.5499C12.1871 12.3896 11.6809 12.3027 11.1544 12.3027C8.56848 12.3027 6.47217 14.399 6.47217 16.985C6.47217 19.5709 8.56848 21.6672 11.1544 21.6672H11.1547L11.1544 21.6673H17.9896C18.0908 21.6673 18.1911 21.6591 18.2896 21.6432C18.478 21.6592 18.6686 21.6673 18.8612 21.6673ZM14.63 20.1528C14.6248 20.1485 14.6195 20.1441 14.6143 20.1398C14.6041 20.1509 14.5939 20.162 14.5837 20.173L14.63 20.1528Z" fill="url(#paint0_linear_4020_67293)"/>
</g>
<path d="M13.536 1.12676C15.0724 0.291079 16.9275 0.291079 18.4639 1.12676L28.2341 6.44127C29.8936 7.34396 30.9267 9.08185 30.9267 10.971V21.029C30.9267 22.9182 29.8936 24.656 28.2341 25.5587L18.4639 30.8732C16.9275 31.7089 15.0724 31.7089 13.536 30.8732L3.76578 25.5587C2.10628 24.656 1.07324 22.9182 1.07324 21.029V10.971C1.07324 9.08185 2.10628 7.34396 3.76578 6.44127L13.536 1.12676Z" stroke="url(#paint1_linear_4020_67293)"/>
<path d="M51.16 15.408C52.104 15.584 52.88 16.056 53.488 16.824C54.096 17.592 54.4 18.472 54.4 19.464C54.4 20.36 54.176 21.152 53.728 21.84C53.296 22.512 52.664 23.04 51.832 23.424C51 23.808 50.016 24 48.88 24H41.656V7.248H48.568C49.704 7.248 50.68 7.432 51.496 7.8C52.328 8.168 52.952 8.68 53.368 9.336C53.8 9.992 54.016 10.736 54.016 11.568C54.016 12.544 53.752 13.36 53.224 14.016C52.712 14.672 52.024 15.136 51.16 15.408ZM45.016 14.16H48.088C48.888 14.16 49.504 13.984 49.936 13.632C50.368 13.264 50.584 12.744 50.584 12.072C50.584 11.4 50.368 10.88 49.936 10.512C49.504 10.144 48.888 9.96 48.088 9.96H45.016V14.16ZM48.4 21.264C49.216 21.264 49.848 21.072 50.296 20.688C50.76 20.304 50.992 19.76 50.992 19.056C50.992 18.336 50.752 17.776 50.272 17.376C49.792 16.96 49.144 16.752 48.328 16.752H45.016V21.264H48.4ZM58.3019 9.12C57.7099 9.12 57.2139 8.936 56.8139 8.568C56.4299 8.184 56.2379 7.712 56.2379 7.152C56.2379 6.592 56.4299 6.128 56.8139 5.76C57.2139 5.376 57.7099 5.184 58.3019 5.184C58.8939 5.184 59.3819 5.376 59.7659 5.76C60.1659 6.128 60.3659 6.592 60.3659 7.152C60.3659 7.712 60.1659 8.184 59.7659 8.568C59.3819 8.936 58.8939 9.12 58.3019 9.12ZM59.9579 10.704V24H56.5979V10.704H59.9579ZM66.7096 13.464V19.896C66.7096 20.344 66.8136 20.672 67.0216 20.88C67.2456 21.072 67.6136 21.168 68.1256 21.168H69.6856V24H67.5736C64.7416 24 63.3256 22.624 63.3256 19.872V13.464H61.7416V10.704H63.3256V7.416H66.7096V10.704H69.6856V13.464H66.7096ZM70.7582 17.352C70.7582 15.976 71.0382 14.776 71.5982 13.752C72.1582 12.712 72.9342 11.912 73.9262 11.352C74.9182 10.776 76.0542 10.488 77.3342 10.488C78.9822 10.488 80.3423 10.904 81.4143 11.736C82.5022 12.552 83.2302 13.704 83.5982 15.192H79.9743C79.7823 14.616 79.4543 14.168 78.9902 13.848C78.5422 13.512 77.9822 13.344 77.3103 13.344C76.3502 13.344 75.5902 13.696 75.0302 14.4C74.4702 15.088 74.1902 16.072 74.1902 17.352C74.1902 18.616 74.4702 19.6 75.0302 20.304C75.5902 20.992 76.3502 21.336 77.3103 21.336C78.6703 21.336 79.5583 20.728 79.9743 19.512H83.5982C83.2302 20.952 82.5022 22.096 81.4143 22.944C80.3262 23.792 78.9662 24.216 77.3342 24.216C76.0542 24.216 74.9182 23.936 73.9262 23.376C72.9342 22.8 72.1582 22 71.5982 20.976C71.0382 19.936 70.7582 18.728 70.7582 17.352ZM88.9398 6.24V24H85.5798V6.24H88.9398ZM97.6834 24.216C96.4034 24.216 95.2514 23.936 94.2274 23.376C93.2034 22.8 92.3954 21.992 91.8034 20.952C91.2274 19.912 90.9394 18.712 90.9394 17.352C90.9394 15.992 91.2354 14.792 91.8274 13.752C92.4354 12.712 93.2594 11.912 94.2994 11.352C95.3394 10.776 96.4994 10.488 97.7794 10.488C99.0594 10.488 100.219 10.776 101.259 11.352C102.299 11.912 103.115 12.712 103.707 13.752C104.315 14.792 104.619 15.992 104.619 17.352C104.619 18.712 104.307 19.912 103.683 20.952C103.075 21.992 102.243 22.8 101.187 23.376C100.147 23.936 98.9794 24.216 97.6834 24.216ZM97.6834 21.288C98.2914 21.288 98.8594 21.144 99.3874 20.856C99.9314 20.552 100.363 20.104 100.683 19.512C101.003 18.92 101.163 18.2 101.163 17.352C101.163 16.088 100.827 15.12 100.155 14.448C99.4994 13.76 98.6914 13.416 97.7314 13.416C96.7714 13.416 95.9634 13.76 95.3074 14.448C94.6674 15.12 94.3474 16.088 94.3474 17.352C94.3474 18.616 94.6594 19.592 95.2834 20.28C95.9234 20.952 96.7234 21.288 97.6834 21.288ZM119.156 10.704V24H115.772V22.32C115.34 22.896 114.772 23.352 114.068 23.688C113.38 24.008 112.628 24.168 111.812 24.168C110.772 24.168 109.852 23.952 109.052 23.52C108.252 23.072 107.62 22.424 107.156 21.576C106.708 20.712 106.484 19.688 106.484 18.504V10.704H109.844V18.024C109.844 19.08 110.108 19.896 110.636 20.472C111.164 21.032 111.884 21.312 112.796 21.312C113.724 21.312 114.452 21.032 114.98 20.472C115.508 19.896 115.772 19.08 115.772 18.024V10.704H119.156ZM121.127 17.304C121.127 15.96 121.391 14.768 121.919 13.728C122.463 12.688 123.199 11.888 124.127 11.328C125.055 10.768 126.087 10.488 127.223 10.488C128.087 10.488 128.911 10.68 129.695 11.064C130.479 11.432 131.103 11.928 131.567 12.552V6.24H134.975V24H131.567V22.032C131.151 22.688 130.567 23.216 129.815 23.616C129.063 24.016 128.191 24.216 127.199 24.216C126.079 24.216 125.055 23.928 124.127 23.352C123.199 22.776 122.463 21.968 121.919 20.928C121.391 19.872 121.127 18.664 121.127 17.304ZM131.591 17.352C131.591 16.536 131.431 15.84 131.111 15.264C130.791 14.672 130.359 14.224 129.815 13.92C129.271 13.6 128.687 13.44 128.063 13.44C127.439 13.44 126.863 13.592 126.335 13.896C125.807 14.2 125.375 14.648 125.039 15.24C124.719 15.816 124.559 16.504 124.559 17.304C124.559 18.104 124.719 18.808 125.039 19.416C125.375 20.008 125.807 20.464 126.335 20.784C126.879 21.104 127.455 21.264 128.063 21.264C128.687 21.264 129.271 21.112 129.815 20.808C130.359 20.488 130.791 20.04 131.111 19.464C131.431 18.872 131.591 18.168 131.591 17.352Z" fill="#23262F"/>
<defs>
<filter id="filter0_d_4020_67293" x="2.47217" y="6.33398" width="27.0557" height="21.333" filterUnits="userSpaceOnUse" color-interpolation-filters="sRGB">
<feFlood flood-opacity="0" result="BackgroundImageFix"/>
<feColorMatrix in="SourceAlpha" type="matrix" values="0 0 0 0 0 0 0 0 0 0 0 0 0 0 0 0 0 0 127 0" result="hardAlpha"/>
<feOffset dy="2"/>
<feGaussianBlur stdDeviation="2"/>
<feColorMatrix type="matrix" values="0 0 0 0 0 0 0 0 0 0 0 0 0 0 0 0 0 0 0.15 0"/>
<feBlend mode="normal" in2="BackgroundImageFix" result="effect1_dropShadow_4020_67293"/>
<feBlend mode="normal" in="SourceGraphic" in2="effect1_dropShadow_4020_67293" result="shape"/>
</filter>
<linearGradient id="paint0_linear_4020_67293" x1="21.6875" y1="9.12549" x2="13.625" y2="21.6673" gradientUnits="userSpaceOnUse">
<stop stop-color="white"/>
<stop offset="1" stop-color="#FCFCFD" stop-opacity="0.75"/>
</linearGradient>
<linearGradient id="paint1_linear_4020_67293" x1="16" y1="0" x2="16" y2="32" gradientUnits="userSpaceOnUse">
<stop stop-color="#7EA4FF" stop-opacity="0.27"/>
<stop offset="1" stop-color="#1448C4" stop-opacity="0.42"/>
</linearGradient>
</defs>
</svg>
