<svg width="138" height="32" viewBox="0 0 138 32" fill="none" xmlns="http://www.w3.org/2000/svg">
<path fill-rule="evenodd" clip-rule="evenodd" d="M13.7971 0.687536C15.4824 -0.229179 17.5175 -0.229179 19.2028 0.687536L28.973 6.00205C30.7935 6.99226 31.9267 8.89867 31.9267 10.971V21.029C31.9267 23.1013 30.7935 25.0077 28.973 25.998L19.2028 31.3125C17.5175 32.2292 15.4824 32.2292 13.7971 31.3125L4.02687 25.998C2.20645 25.0077 1.07324 23.1013 1.07324 21.029L1.07324 10.971C1.07324 8.89867 2.20645 6.99226 4.02686 6.00205L13.7971 0.687536Z" fill="#3772FF"/>
<g filter="url(#filter0_d_4355_46733)">
<path fill-rule="evenodd" clip-rule="evenodd" d="M19.3612 21.6673C23.0431 21.6673 26.0278 18.6825 26.0278 15.0007C26.0278 11.3188 23.0431 8.33398 19.3612 8.33398C16.5446 8.33398 14.136 10.0806 13.1594 12.5499C12.6871 12.3896 12.1809 12.3027 11.6544 12.3027C9.06848 12.3027 6.97217 14.399 6.97217 16.985C6.97217 19.5709 9.06848 21.6672 11.6544 21.6672H11.6547L11.6544 21.6673H18.4896C18.5908 21.6673 18.6911 21.6591 18.7896 21.6432C18.978 21.6592 19.1686 21.6673 19.3612 21.6673ZM15.13 20.1528C15.1248 20.1485 15.1195 20.1441 15.1143 20.1398C15.1041 20.1509 15.0939 20.162 15.0837 20.173L15.13 20.1528Z" fill="url(#paint0_linear_4355_46733)"/>
</g>
<path d="M14.036 1.12676C15.5724 0.291079 17.4275 0.291079 18.9639 1.12676L28.7341 6.44127C30.3936 7.34396 31.4267 9.08185 31.4267 10.971V21.029C31.4267 22.9182 30.3936 24.656 28.7341 25.5587L18.9639 30.8732C17.4275 31.7089 15.5724 31.7089 14.036 30.8732L4.26578 25.5587C2.60628 24.656 1.57324 22.9182 1.57324 21.029V10.971C1.57324 9.08185 2.60628 7.34396 4.26578 6.44127L14.036 1.12676Z" stroke="url(#paint1_linear_4355_46733)"/>
<path d="M51.66 15.408C52.604 15.584 53.38 16.056 53.988 16.824C54.596 17.592 54.9 18.472 54.9 19.464C54.9 20.36 54.676 21.152 54.228 21.84C53.796 22.512 53.164 23.04 52.332 23.424C51.5 23.808 50.516 24 49.38 24H42.156V7.248H49.068C50.204 7.248 51.18 7.432 51.996 7.8C52.828 8.168 53.452 8.68 53.868 9.336C54.3 9.992 54.516 10.736 54.516 11.568C54.516 12.544 54.252 13.36 53.724 14.016C53.212 14.672 52.524 15.136 51.66 15.408ZM45.516 14.16H48.588C49.388 14.16 50.004 13.984 50.436 13.632C50.868 13.264 51.084 12.744 51.084 12.072C51.084 11.4 50.868 10.88 50.436 10.512C50.004 10.144 49.388 9.96 48.588 9.96H45.516V14.16ZM48.9 21.264C49.716 21.264 50.348 21.072 50.796 20.688C51.26 20.304 51.492 19.76 51.492 19.056C51.492 18.336 51.252 17.776 50.772 17.376C50.292 16.96 49.644 16.752 48.828 16.752H45.516V21.264H48.9ZM58.8019 9.12C58.2099 9.12 57.7139 8.936 57.3139 8.568C56.9299 8.184 56.7379 7.712 56.7379 7.152C56.7379 6.592 56.9299 6.128 57.3139 5.76C57.7139 5.376 58.2099 5.184 58.8019 5.184C59.3939 5.184 59.8819 5.376 60.2659 5.76C60.6659 6.128 60.8659 6.592 60.8659 7.152C60.8659 7.712 60.6659 8.184 60.2659 8.568C59.8819 8.936 59.3939 9.12 58.8019 9.12ZM60.4579 10.704V24H57.0979V10.704H60.4579ZM67.2096 13.464V19.896C67.2096 20.344 67.3136 20.672 67.5216 20.88C67.7456 21.072 68.1136 21.168 68.6256 21.168H70.1856V24H68.0736C65.2416 24 63.8256 22.624 63.8256 19.872V13.464H62.2416V10.704H63.8256V7.416H67.2096V10.704H70.1856V13.464H67.2096ZM71.2582 17.352C71.2582 15.976 71.5382 14.776 72.0982 13.752C72.6582 12.712 73.4342 11.912 74.4262 11.352C75.4182 10.776 76.5542 10.488 77.8342 10.488C79.4822 10.488 80.8423 10.904 81.9143 11.736C83.0022 12.552 83.7302 13.704 84.0982 15.192H80.4743C80.2823 14.616 79.9543 14.168 79.4902 13.848C79.0422 13.512 78.4822 13.344 77.8103 13.344C76.8502 13.344 76.0902 13.696 75.5302 14.4C74.9702 15.088 74.6902 16.072 74.6902 17.352C74.6902 18.616 74.9702 19.6 75.5302 20.304C76.0902 20.992 76.8502 21.336 77.8103 21.336C79.1703 21.336 80.0583 20.728 80.4743 19.512H84.0982C83.7302 20.952 83.0022 22.096 81.9143 22.944C80.8262 23.792 79.4662 24.216 77.8342 24.216C76.5542 24.216 75.4182 23.936 74.4262 23.376C73.4342 22.8 72.6582 22 72.0982 20.976C71.5382 19.936 71.2582 18.728 71.2582 17.352ZM89.4398 6.24V24H86.0798V6.24H89.4398ZM98.1834 24.216C96.9034 24.216 95.7514 23.936 94.7274 23.376C93.7034 22.8 92.8954 21.992 92.3034 20.952C91.7274 19.912 91.4394 18.712 91.4394 17.352C91.4394 15.992 91.7354 14.792 92.3274 13.752C92.9354 12.712 93.7594 11.912 94.7994 11.352C95.8394 10.776 96.9994 10.488 98.2794 10.488C99.5594 10.488 100.719 10.776 101.759 11.352C102.799 11.912 103.615 12.712 104.207 13.752C104.815 14.792 105.119 15.992 105.119 17.352C105.119 18.712 104.807 19.912 104.183 20.952C103.575 21.992 102.743 22.8 101.687 23.376C100.647 23.936 99.4794 24.216 98.1834 24.216ZM98.1834 21.288C98.7914 21.288 99.3594 21.144 99.8874 20.856C100.431 20.552 100.863 20.104 101.183 19.512C101.503 18.92 101.663 18.2 101.663 17.352C101.663 16.088 101.327 15.12 100.655 14.448C99.9994 13.76 99.1914 13.416 98.2314 13.416C97.2714 13.416 96.4634 13.76 95.8074 14.448C95.1674 15.12 94.8474 16.088 94.8474 17.352C94.8474 18.616 95.1594 19.592 95.7834 20.28C96.4234 20.952 97.2234 21.288 98.1834 21.288ZM119.656 10.704V24H116.272V22.32C115.84 22.896 115.272 23.352 114.568 23.688C113.88 24.008 113.128 24.168 112.312 24.168C111.272 24.168 110.352 23.952 109.552 23.52C108.752 23.072 108.12 22.424 107.656 21.576C107.208 20.712 106.984 19.688 106.984 18.504V10.704H110.344V18.024C110.344 19.08 110.608 19.896 111.136 20.472C111.664 21.032 112.384 21.312 113.296 21.312C114.224 21.312 114.952 21.032 115.48 20.472C116.008 19.896 116.272 19.08 116.272 18.024V10.704H119.656ZM121.627 17.304C121.627 15.96 121.891 14.768 122.419 13.728C122.963 12.688 123.699 11.888 124.627 11.328C125.555 10.768 126.587 10.488 127.723 10.488C128.587 10.488 129.411 10.68 130.195 11.064C130.979 11.432 131.603 11.928 132.067 12.552V6.24H135.475V24H132.067V22.032C131.651 22.688 131.067 23.216 130.315 23.616C129.563 24.016 128.691 24.216 127.699 24.216C126.579 24.216 125.555 23.928 124.627 23.352C123.699 22.776 122.963 21.968 122.419 20.928C121.891 19.872 121.627 18.664 121.627 17.304ZM132.091 17.352C132.091 16.536 131.931 15.84 131.611 15.264C131.291 14.672 130.859 14.224 130.315 13.92C129.771 13.6 129.187 13.44 128.563 13.44C127.939 13.44 127.363 13.592 126.835 13.896C126.307 14.2 125.875 14.648 125.539 15.24C125.219 15.816 125.059 16.504 125.059 17.304C125.059 18.104 125.219 18.808 125.539 19.416C125.875 20.008 126.307 20.464 126.835 20.784C127.379 21.104 127.955 21.264 128.563 21.264C129.187 21.264 129.771 21.112 130.315 20.808C130.859 20.488 131.291 20.04 131.611 19.464C131.931 18.872 132.091 18.168 132.091 17.352Z" fill="#23262F"/>
<defs>
<filter id="filter0_d_4355_46733" x="2.97217" y="6.33398" width="27.0557" height="21.334" filterUnits="userSpaceOnUse" color-interpolation-filters="sRGB">
<feFlood flood-opacity="0" result="BackgroundImageFix"/>
<feColorMatrix in="SourceAlpha" type="matrix" values="0 0 0 0 0 0 0 0 0 0 0 0 0 0 0 0 0 0 127 0" result="hardAlpha"/>
<feOffset dy="2"/>
<feGaussianBlur stdDeviation="2"/>
<feColorMatrix type="matrix" values="0 0 0 0 0 0 0 0 0 0 0 0 0 0 0 0 0 0 0.15 0"/>
<feBlend mode="normal" in2="BackgroundImageFix" result="effect1_dropShadow_4355_46733"/>
<feBlend mode="normal" in="SourceGraphic" in2="effect1_dropShadow_4355_46733" result="shape"/>
</filter>
<linearGradient id="paint0_linear_4355_46733" x1="22.1875" y1="9.12549" x2="14.125" y2="21.6673" gradientUnits="userSpaceOnUse">
<stop stop-color="white"/>
<stop offset="1" stop-color="#FCFCFD" stop-opacity="0.75"/>
</linearGradient>
<linearGradient id="paint1_linear_4355_46733" x1="16.5" y1="0" x2="16.5" y2="32" gradientUnits="userSpaceOnUse">
<stop stop-color="#7EA4FF" stop-opacity="0.27"/>
<stop offset="1" stop-color="#1448C4" stop-opacity="0.42"/>
</linearGradient>
</defs>
</svg>
