<svg width="58" height="24" viewBox="0 0 58 24" fill="none" xmlns="http://www.w3.org/2000/svg">
<rect width="58" height="24" rx="12" fill="#58BD7D"/>
<path d="M13.94 11.008V12.424H8.852V11.008H13.94ZM15.6321 11.512C15.6321 10.128 15.8801 9.044 16.3761 8.26C16.8801 7.476 17.7121 7.084 18.8721 7.084C20.0321 7.084 20.8601 7.476 21.3561 8.26C21.8601 9.044 22.1121 10.128 22.1121 11.512C22.1121 12.904 21.8601 13.996 21.3561 14.788C20.8601 15.58 20.0321 15.976 18.8721 15.976C17.7121 15.976 16.8801 15.58 16.3761 14.788C15.8801 13.996 15.6321 12.904 15.6321 11.512ZM20.4561 11.512C20.4561 10.92 20.4161 10.424 20.3361 10.024C20.2641 9.616 20.1121 9.284 19.8801 9.028C19.6561 8.772 19.3201 8.644 18.8721 8.644C18.4241 8.644 18.0841 8.772 17.8521 9.028C17.6281 9.284 17.4761 9.616 17.3961 10.024C17.3241 10.424 17.2881 10.92 17.2881 11.512C17.2881 12.12 17.3241 12.632 17.3961 13.048C17.4681 13.456 17.6201 13.788 17.8521 14.044C18.0841 14.292 18.4241 14.416 18.8721 14.416C19.3201 14.416 19.6601 14.292 19.8921 14.044C20.1241 13.788 20.2761 13.456 20.3481 13.048C20.4201 12.632 20.4561 12.12 20.4561 11.512ZM24.3259 16.084C24.0219 16.084 23.7699 15.992 23.5699 15.808C23.3779 15.616 23.2819 15.38 23.2819 15.1C23.2819 14.82 23.3779 14.588 23.5699 14.404C23.7699 14.212 24.0219 14.116 24.3259 14.116C24.6219 14.116 24.8659 14.212 25.0579 14.404C25.2499 14.588 25.3459 14.82 25.3459 15.1C25.3459 15.38 25.2499 15.616 25.0579 15.808C24.8659 15.992 24.6219 16.084 24.3259 16.084ZM32.0751 8.524L28.8831 16H27.1791L30.3951 8.716H26.2911V7.276H32.0751V8.524ZM35.0253 13.54C35.0893 13.892 35.2333 14.164 35.4573 14.356C35.6893 14.54 35.9973 14.632 36.3813 14.632C36.8773 14.632 37.2373 14.428 37.4613 14.02C37.6853 13.604 37.7973 12.908 37.7973 11.932C37.6133 12.188 37.3533 12.388 37.0173 12.532C36.6893 12.676 36.3333 12.748 35.9493 12.748C35.4373 12.748 34.9733 12.644 34.5573 12.436C34.1493 12.22 33.8253 11.904 33.5853 11.488C33.3453 11.064 33.2253 10.552 33.2253 9.952C33.2253 9.064 33.4893 8.36 34.0173 7.84C34.5453 7.312 35.2653 7.048 36.1773 7.048C37.3133 7.048 38.1133 7.412 38.5773 8.14C39.0493 8.868 39.2853 9.964 39.2853 11.428C39.2853 12.468 39.1933 13.32 39.0093 13.984C38.8333 14.648 38.5253 15.152 38.0853 15.496C37.6533 15.84 37.0613 16.012 36.3093 16.012C35.7173 16.012 35.2133 15.9 34.7973 15.676C34.3813 15.444 34.0613 15.144 33.8373 14.776C33.6213 14.4 33.4973 13.988 33.4653 13.54H35.0253ZM36.2973 11.38C36.7133 11.38 37.0413 11.252 37.2813 10.996C37.5213 10.74 37.6413 10.396 37.6413 9.964C37.6413 9.492 37.5133 9.128 37.2573 8.872C37.0093 8.608 36.6693 8.476 36.2373 8.476C35.8053 8.476 35.4613 8.612 35.2053 8.884C34.9573 9.148 34.8333 9.5 34.8333 9.94C34.8333 10.364 34.9533 10.712 35.1933 10.984C35.4413 11.248 35.8093 11.38 36.2973 11.38ZM40.401 9.4C40.401 8.792 40.577 8.316 40.929 7.972C41.289 7.628 41.749 7.456 42.309 7.456C42.869 7.456 43.325 7.628 43.677 7.972C44.037 8.316 44.217 8.792 44.217 9.4C44.217 10.016 44.037 10.496 43.677 10.84C43.325 11.184 42.869 11.356 42.309 11.356C41.749 11.356 41.289 11.184 40.929 10.84C40.577 10.496 40.401 10.016 40.401 9.4ZM48.105 7.6L43.389 16H41.757L46.461 7.6H48.105ZM42.297 8.464C41.857 8.464 41.637 8.776 41.637 9.4C41.637 10.032 41.857 10.348 42.297 10.348C42.513 10.348 42.681 10.272 42.801 10.12C42.921 9.96 42.981 9.72 42.981 9.4C42.981 8.776 42.753 8.464 42.297 8.464ZM45.669 14.188C45.669 13.572 45.845 13.096 46.197 12.76C46.557 12.416 47.017 12.244 47.577 12.244C48.137 12.244 48.589 12.416 48.933 12.76C49.285 13.096 49.461 13.572 49.461 14.188C49.461 14.804 49.285 15.284 48.933 15.628C48.589 15.972 48.137 16.144 47.577 16.144C47.009 16.144 46.549 15.972 46.197 15.628C45.845 15.284 45.669 14.804 45.669 14.188ZM47.565 13.252C47.109 13.252 46.881 13.564 46.881 14.188C46.881 14.82 47.109 15.136 47.565 15.136C48.013 15.136 48.237 14.82 48.237 14.188C48.237 13.564 48.013 13.252 47.565 13.252Z" fill="#FCFCFD"/>
</svg>
