<svg width="59" height="24" viewBox="0 0 59 24" fill="none" xmlns="http://www.w3.org/2000/svg">
<rect width="59" height="24" rx="12" fill="#58BD7D"/>
<path d="M15.104 12.46H12.836V14.788H11.252V12.46H8.984V10.996H11.252V8.668H12.836V10.996H15.104V12.46ZM16.7219 11.512C16.7219 10.128 16.9699 9.044 17.4659 8.26C17.9699 7.476 18.8019 7.084 19.9619 7.084C21.1219 7.084 21.9499 7.476 22.4459 8.26C22.9499 9.044 23.2019 10.128 23.2019 11.512C23.2019 12.904 22.9499 13.996 22.4459 14.788C21.9499 15.58 21.1219 15.976 19.9619 15.976C18.8019 15.976 17.9699 15.58 17.4659 14.788C16.9699 13.996 16.7219 12.904 16.7219 11.512ZM21.5459 11.512C21.5459 10.92 21.5059 10.424 21.4259 10.024C21.3539 9.616 21.2019 9.284 20.9699 9.028C20.7459 8.772 20.4099 8.644 19.9619 8.644C19.5139 8.644 19.1739 8.772 18.9419 9.028C18.7179 9.284 18.5659 9.616 18.4859 10.024C18.4139 10.424 18.3779 10.92 18.3779 11.512C18.3779 12.12 18.4139 12.632 18.4859 13.048C18.5579 13.456 18.7099 13.788 18.9419 14.044C19.1739 14.292 19.5139 14.416 19.9619 14.416C20.4099 14.416 20.7499 14.292 20.9819 14.044C21.2139 13.788 21.3659 13.456 21.4379 13.048C21.5099 12.632 21.5459 12.12 21.5459 11.512ZM25.4158 16.084C25.1118 16.084 24.8598 15.992 24.6598 15.808C24.4678 15.616 24.3718 15.38 24.3718 15.1C24.3718 14.82 24.4678 14.588 24.6598 14.404C24.8598 14.212 25.1118 14.116 25.4158 14.116C25.7118 14.116 25.9558 14.212 26.1478 14.404C26.3398 14.588 26.4358 14.82 26.4358 15.1C26.4358 15.38 26.3398 15.616 26.1478 15.808C25.9558 15.992 25.7118 16.084 25.4158 16.084ZM33.1649 8.524L29.9729 16H28.2689L31.4849 8.716H27.3809V7.276H33.1649V8.524ZM36.1152 13.54C36.1792 13.892 36.3232 14.164 36.5472 14.356C36.7792 14.54 37.0872 14.632 37.4712 14.632C37.9672 14.632 38.3272 14.428 38.5512 14.02C38.7752 13.604 38.8872 12.908 38.8872 11.932C38.7032 12.188 38.4432 12.388 38.1072 12.532C37.7792 12.676 37.4232 12.748 37.0392 12.748C36.5272 12.748 36.0632 12.644 35.6472 12.436C35.2392 12.22 34.9152 11.904 34.6752 11.488C34.4352 11.064 34.3152 10.552 34.3152 9.952C34.3152 9.064 34.5792 8.36 35.1072 7.84C35.6352 7.312 36.3552 7.048 37.2672 7.048C38.4032 7.048 39.2032 7.412 39.6672 8.14C40.1392 8.868 40.3752 9.964 40.3752 11.428C40.3752 12.468 40.2832 13.32 40.0992 13.984C39.9232 14.648 39.6152 15.152 39.1752 15.496C38.7432 15.84 38.1512 16.012 37.3992 16.012C36.8072 16.012 36.3032 15.9 35.8872 15.676C35.4712 15.444 35.1512 15.144 34.9272 14.776C34.7112 14.4 34.5872 13.988 34.5552 13.54H36.1152ZM37.3872 11.38C37.8032 11.38 38.1312 11.252 38.3712 10.996C38.6112 10.74 38.7312 10.396 38.7312 9.964C38.7312 9.492 38.6032 9.128 38.3472 8.872C38.0992 8.608 37.7592 8.476 37.3272 8.476C36.8952 8.476 36.5512 8.612 36.2952 8.884C36.0472 9.148 35.9232 9.5 35.9232 9.94C35.9232 10.364 36.0432 10.712 36.2832 10.984C36.5312 11.248 36.8992 11.38 37.3872 11.38ZM41.4909 9.4C41.4909 8.792 41.6669 8.316 42.0189 7.972C42.3789 7.628 42.8389 7.456 43.3989 7.456C43.9589 7.456 44.4149 7.628 44.7669 7.972C45.1269 8.316 45.3069 8.792 45.3069 9.4C45.3069 10.016 45.1269 10.496 44.7669 10.84C44.4149 11.184 43.9589 11.356 43.3989 11.356C42.8389 11.356 42.3789 11.184 42.0189 10.84C41.6669 10.496 41.4909 10.016 41.4909 9.4ZM49.1949 7.6L44.4789 16H42.8469L47.5509 7.6H49.1949ZM43.3869 8.464C42.9469 8.464 42.7269 8.776 42.7269 9.4C42.7269 10.032 42.9469 10.348 43.3869 10.348C43.6029 10.348 43.7709 10.272 43.8909 10.12C44.0109 9.96 44.0709 9.72 44.0709 9.4C44.0709 8.776 43.8429 8.464 43.3869 8.464ZM46.7589 14.188C46.7589 13.572 46.9349 13.096 47.2869 12.76C47.6469 12.416 48.1069 12.244 48.6669 12.244C49.2269 12.244 49.6789 12.416 50.0229 12.76C50.3749 13.096 50.5509 13.572 50.5509 14.188C50.5509 14.804 50.3749 15.284 50.0229 15.628C49.6789 15.972 49.2269 16.144 48.6669 16.144C48.0989 16.144 47.6389 15.972 47.2869 15.628C46.9349 15.284 46.7589 14.804 46.7589 14.188ZM48.6549 13.252C48.1989 13.252 47.9709 13.564 47.9709 14.188C47.9709 14.82 48.1989 15.136 48.6549 15.136C49.1029 15.136 49.3269 14.82 49.3269 14.188C49.3269 13.564 49.1029 13.252 48.6549 13.252Z" fill="#FCFCFD"/>
</svg>
