<svg width="40" height="40" viewBox="0 0 40 40" fill="none" xmlns="http://www.w3.org/2000/svg">
<path fill-rule="evenodd" clip-rule="evenodd" d="M16.6216 0.85942C18.7283 -0.286473 21.2721 -0.286474 23.3787 0.85942L35.5915 7.50256C37.8671 8.74033 39.2836 11.1233 39.2836 13.7137V26.2863C39.2836 28.8767 37.8671 31.2597 35.5915 32.4974L23.3787 39.1406C21.2721 40.2865 18.7283 40.2865 16.6216 39.1406L4.40883 32.4974C2.1333 31.2597 0.716797 28.8767 0.716797 26.2863L0.716797 13.7137C0.716797 11.1233 2.1333 8.74033 4.40882 7.50256L16.6216 0.85942Z" fill="#2A5ADA"/>
<g clip-path="url(#clip0_4028_53208)">
<path d="M20 36C28.8366 36 36 28.8366 36 20C36 11.1634 28.8366 4 20 4C11.1634 4 4 11.1634 4 20C4 28.8366 11.1634 36 20 36Z" fill="#2A5ADA"/>
<path d="M19.5 10L17.701 11.055L12.8 13.945L11 15V25L12.799 26.055L17.746 28.945L19.545 30L21.344 28.945L26.201 26.055L28 25V15L26.201 13.945L21.299 11.055L19.5 10ZM14.598 22.89V17.11L19.5 14.22L24.402 17.11V22.89L19.5 25.78L14.598 22.89Z" fill="#FCFCFD"/>
</g>
<defs>
<clipPath id="clip0_4028_53208">
<rect width="32" height="32" fill="white" transform="translate(4 4)"/>
</clipPath>
</defs>
</svg>
