<svg width="40" height="40" viewBox="0 0 40 40" fill="none" xmlns="http://www.w3.org/2000/svg">
<path fill-rule="evenodd" clip-rule="evenodd" d="M16.6216 0.85942C18.7283 -0.286473 21.2721 -0.286474 23.3787 0.85942L35.5915 7.50256C37.8671 8.74033 39.2836 11.1233 39.2836 13.7137V26.2863C39.2836 28.8767 37.8671 31.2597 35.5915 32.4974L23.3787 39.1406C21.2721 40.2865 18.7283 40.2865 16.6216 39.1406L4.40883 32.4974C2.1333 31.2597 0.716797 28.8767 0.716797 26.2863L0.716797 13.7137C0.716797 11.1233 2.1333 8.74033 4.40882 7.50256L16.6216 0.85942Z" fill="#23292F"/>
<g clip-path="url(#clip0_4028_53242)">
<path d="M20 36C28.8366 36 36 28.8366 36 20C36 11.1634 28.8366 4 20 4C11.1634 4 4 11.1634 4 20C4 28.8366 11.1634 36 20 36Z" fill="#23292F"/>
<path d="M27.07 12H29.96L23.945 17.957C22.8934 18.9931 21.4763 19.5739 20 19.5739C18.5237 19.5739 17.1066 18.9931 16.055 17.957L10.035 12H12.93L17.5 16.523C18.1655 17.1799 19.0629 17.5482 19.998 17.5482C20.9331 17.5482 21.8305 17.1799 22.496 16.523L27.07 12ZM12.895 28.563H10L16.055 22.57C17.1066 21.5339 18.5237 20.9531 20 20.9531C21.4763 20.9531 22.8934 21.5339 23.945 22.57L30 28.562H27.105L22.5 24C21.8345 23.3431 20.9371 22.9748 20.002 22.9748C19.0669 22.9748 18.1695 23.3431 17.504 24L12.894 28.563H12.895Z" fill="#FCFCFD"/>
</g>
<defs>
<clipPath id="clip0_4028_53242">
<rect width="32" height="32" fill="white" transform="translate(4 4)"/>
</clipPath>
</defs>
</svg>
